<svg width="54" height="54" viewBox="0 0 54 54" fill="none" xmlns="http://www.w3.org/2000/svg">
<path d="M24.75 18H29.25V31.5H24.75V18ZM33.75 2.25H20.25V6.75H33.75V2.25ZM27 45C18.2925 45 11.25 37.9575 11.25 29.25C11.25 20.5425 18.2925 13.5 27 13.5C35.7075 13.5 42.75 20.5425 42.75 29.25C44.325 29.25 45.81 29.5425 47.25 30.0375V29.25C47.25 24.48 45.585 20.0925 42.8175 16.6275L46.0125 13.4325C45 12.285 43.9875 11.25 42.84 10.26L39.645 13.5C36.1575 10.665 31.77 9 27 9C21.6294 9 16.4787 11.1335 12.6811 14.9311C8.88348 18.7287 6.75 23.8794 6.75 29.25C6.75 34.6206 8.88348 39.7713 12.6811 43.5689C16.4787 47.3665 21.6294 49.5 27 49.5C28.3275 49.5 29.61 49.365 30.8475 49.1175C30.15 47.8125 29.655 46.35 29.43 44.7975C28.62 44.91 27.8325 45 27 45ZM48.015 35.64L39.9375 43.7175L36.36 40.14L33.75 42.75L39.9375 49.5L50.625 38.8125L48.015 35.64Z" fill="#C8B171"/>
</svg>
