<svg width="54" height="54" viewBox="0 0 54 54" fill="none" xmlns="http://www.w3.org/2000/svg">
<path d="M36 7.2675C37.5975 5.4225 39.6225 4.5 42.075 4.5C44.1225 4.5 45.8325 5.2425 47.25 6.75C48.6675 8.2575 49.41 9.9675 49.5 11.925C49.5 13.5 48.7575 15.3225 47.25 17.46C45.7425 19.5975 44.28 21.375 42.8175 22.8375C41.355 24.2775 39.0825 26.415 36 29.25C32.8725 26.415 30.5775 24.2775 29.115 22.8375C27.6525 21.3975 26.1675 19.5975 24.6825 17.46C23.1975 15.3225 22.5 13.5 22.5 11.925C22.5 9.8775 23.22 8.1675 24.6825 6.75C26.145 5.3325 27.9 4.59 29.9475 4.5C32.355 4.5 34.3575 5.4225 36 7.2675ZM49.5 42.75V45L31.5 50.625L15.75 46.26V49.5H2.25V24.75H20.1825L34.0425 29.925C35.2775 30.3909 36.3415 31.2216 37.0931 32.3067C37.8447 33.3919 38.2482 34.68 38.25 36H42.75C46.485 36 49.5 39.015 49.5 42.75ZM11.25 45V29.25H6.75V45H11.25ZM44.775 41.7825C44.415 41.04 43.6275 40.5 42.75 40.5H30.7125C29.4975 40.5 28.305 40.32 27.1575 39.9375L21.8025 38.16L23.22 33.885L28.575 35.6625C29.25 35.8875 33.75 36 33.75 36C33.75 35.1675 33.2325 34.425 32.4675 34.1325L19.3725 29.25H15.75V41.625L31.4325 45.9225L44.775 41.7825Z" fill="#C8B171"/>
</svg>
