<svg width="43" height="43" viewBox="0 0 43 43" fill="none" xmlns="http://www.w3.org/2000/svg">
<path d="M21.5718 3.58356C11.7893 3.58356 3.81635 11.5565 3.81635 21.339C3.81635 24.4745 4.64052 27.5203 6.18136 30.2078L3.67302 39.417L13.0793 36.9445C15.6772 38.3599 18.5977 39.1124 21.5718 39.1124C31.3544 39.1124 39.3273 31.1395 39.3273 21.357C39.3273 16.609 37.4819 12.1478 34.1315 8.79733C32.4889 7.13811 30.5323 5.82256 28.376 4.92741C26.2196 4.03226 23.9066 3.57543 21.5718 3.58356ZM21.5898 6.57566C25.5314 6.57566 29.2223 8.1165 32.0173 10.9115C33.389 12.2828 34.4765 13.9113 35.2175 15.7038C35.9585 17.4963 36.3383 19.4174 36.3352 21.357C36.3352 29.4912 29.706 36.1024 21.5718 36.1024C18.9202 36.1024 16.3222 35.4037 14.0647 34.042L13.5272 33.7374L7.9372 35.2066L9.42429 29.7599L9.06595 29.1866C7.58593 26.8371 6.80309 24.1158 6.80845 21.339C6.82636 13.2048 13.4376 6.57566 21.5898 6.57566ZM15.2831 13.1332C14.9964 13.1332 14.5126 13.2407 14.1006 13.6886C13.7064 14.1365 12.5418 15.2294 12.5418 17.3974C12.5418 19.5832 14.1364 21.6795 14.3335 21.984C14.5843 22.2886 17.4868 26.7678 21.9481 28.667C23.0052 29.1507 23.8293 29.4195 24.4743 29.6166C25.5314 29.957 26.4989 29.9032 27.2694 29.7957C28.1294 29.6703 29.8852 28.7207 30.2614 27.6816C30.6377 26.6424 30.6377 25.7645 30.5302 25.5674C30.4048 25.3882 30.1181 25.2807 29.6702 25.0836C29.2223 24.8328 27.0364 23.7578 26.6423 23.6145C26.2302 23.4711 25.9794 23.3995 25.6389 23.8295C25.3523 24.2774 24.4923 25.2807 24.2414 25.5674C23.9727 25.872 23.7218 25.9078 23.2918 25.6928C22.826 25.4599 21.3927 24.9941 19.7085 23.4891C18.3827 22.3065 17.5047 20.8553 17.236 20.4074C17.021 19.9774 17.2181 19.7086 17.4331 19.5115C17.6302 19.3145 17.9168 18.992 18.096 18.7232C18.3289 18.4724 18.4006 18.2753 18.5439 17.9886C18.6872 17.684 18.6156 17.4332 18.5081 17.2182C18.4006 17.0211 17.5047 14.7994 17.1285 13.9215C16.7701 13.0615 16.4118 13.169 16.1251 13.1511C15.8743 13.1511 15.5876 13.1332 15.2831 13.1332Z" fill="white"/>
</svg>
