<svg width="54" height="54" viewBox="0 0 54 54" fill="none" xmlns="http://www.w3.org/2000/svg">
<path d="M47.25 37.125C47.25 37.98 46.7775 38.7225 46.0575 39.105L28.2825 49.095C27.9225 49.365 27.4725 49.5 27 49.5C26.5275 49.5 26.0775 49.365 25.7175 49.095L7.94251 39.105C7.58179 38.9154 7.27991 38.6307 7.06967 38.2816C6.85944 37.9325 6.74888 37.5325 6.75001 37.125V16.875C6.75001 16.02 7.22251 15.2775 7.94251 14.895L25.7175 4.905C26.0775 4.635 26.5275 4.5 27 4.5C27.4725 4.5 27.9225 4.635 28.2825 4.905L46.0575 14.895C46.7775 15.2775 47.25 16.02 47.25 16.875V37.125ZM27 9.3375L13.59 16.875L27 24.4125L40.41 16.875L27 9.3375ZM11.25 35.7975L24.75 43.4025V28.305L11.25 20.7225V35.7975ZM42.75 35.7975V20.7225L29.25 28.305V43.4025L42.75 35.7975Z" fill="#C8B171"/>
</svg>
