<svg width="54" height="54" viewBox="0 0 54 54" fill="none" xmlns="http://www.w3.org/2000/svg">
<path d="M6.75 13.5V40.5H29.97C29.4919 39.0479 29.2489 37.5288 29.25 36H15.75C15.75 34.8065 15.2759 33.6619 14.432 32.818C13.5881 31.9741 12.4435 31.5 11.25 31.5V22.5C13.7475 22.5 15.75 20.4975 15.75 18H38.25C38.25 19.1935 38.7241 20.3381 39.568 21.182C40.4119 22.0259 41.5565 22.5 42.75 22.5V22.635C44.2575 22.635 45.765 22.905 47.25 23.4V13.5H6.75ZM27 20.25C23.175 20.3175 20.25 23.175 20.25 27C20.25 30.825 23.175 33.615 27 33.75C27.855 33.75 28.7325 33.57 29.565 33.2325C30.1725 30.7575 31.185 28.4175 33.6825 26.1225C33.4125 23.13 30.5775 20.1825 27 20.25ZM48.6675 27.6075L39.96 36.3825L36.9225 33.3L33.75 36.495L39.9375 42.75L51.8175 30.78L48.6675 27.6075Z" fill="#C8B171"/>
</svg>
