<svg width="40" height="40" viewBox="0 0 40 40" fill="none" xmlns="http://www.w3.org/2000/svg">
<path d="M35 27.5002C35 28.1335 34.65 28.6835 34.1167 28.9668L20.95 36.3668C20.6833 36.5668 20.35 36.6668 20 36.6668C19.65 36.6668 19.3167 36.5668 19.05 36.3668L5.88334 28.9668C5.61614 28.8264 5.39253 28.6155 5.23679 28.3569C5.08106 28.0983 4.99917 27.802 5.00001 27.5002V12.5002C5.00001 11.8668 5.35001 11.3168 5.88334 11.0335L19.05 3.6335C19.3167 3.4335 19.65 3.3335 20 3.3335C20.35 3.3335 20.6833 3.4335 20.95 3.6335L34.1167 11.0335C34.65 11.3168 35 11.8668 35 12.5002V27.5002ZM20 6.91683L10.0667 12.5002L20 18.0835L29.9333 12.5002L20 6.91683ZM8.33334 26.5168L18.3333 32.1502V20.9668L8.33334 15.3502V26.5168ZM31.6667 26.5168V15.3502L21.6667 20.9668V32.1502L31.6667 26.5168Z" fill="#FFCE4C"/>
</svg>
